<svg xmlns="http://www.w3.org/2000/svg" xmlns:xlink="http://www.w3.org/1999/xlink" width="500" zoomAndPan="magnify" viewBox="0 0 375 374.999991" height="500" preserveAspectRatio="xMidYMid meet" version="1.0"><defs><g/><clipPath id="8b91e83720"><path d="M 33.285156 153.3125 L 367.785156 153.3125 L 367.785156 219.3125 L 33.285156 219.3125 Z M 33.285156 153.3125 " clip-rule="nonzero"/></clipPath><clipPath id="a74b73b5cb"><path d="M 43 158 L 76 158 L 76 181 L 43 181 Z M 43 158 " clip-rule="nonzero"/></clipPath><clipPath id="1196419078"><path d="M 51.015625 148.148438 L 76.894531 161.777344 L 63.265625 187.660156 L 37.386719 174.03125 Z M 51.015625 148.148438 " clip-rule="nonzero"/></clipPath><clipPath id="42940a1bfa"><path d="M 51.015625 148.148438 L 76.894531 161.777344 L 63.265625 187.660156 L 37.386719 174.03125 Z M 51.015625 148.148438 " clip-rule="nonzero"/></clipPath><clipPath id="d03dc27818"><path d="M 41 167 L 51 167 L 51 174 L 41 174 Z M 41 167 " clip-rule="nonzero"/></clipPath><clipPath id="dcf572d055"><path d="M 51.015625 148.148438 L 76.894531 161.777344 L 63.265625 187.660156 L 37.386719 174.03125 Z M 51.015625 148.148438 " clip-rule="nonzero"/></clipPath><clipPath id="a9d05d973c"><path d="M 51.015625 148.148438 L 76.894531 161.777344 L 63.265625 187.660156 L 37.386719 174.03125 Z M 51.015625 148.148438 " clip-rule="nonzero"/></clipPath></defs><g clip-path="url(#8b91e83720)"><path fill="#ffffff" d="M 200.671875 219.398438 C 156.03125 219.398438 114.058594 216.007812 82.484375 209.847656 C 50.757812 203.664062 33.285156 195.363281 33.285156 186.484375 C 33.285156 177.605469 50.757812 169.304688 82.484375 163.121094 C 114.058594 156.960938 156.03125 153.570312 200.671875 153.570312 C 245.316406 153.570312 287.289062 156.960938 318.863281 163.121094 C 350.589844 169.304688 368.0625 177.605469 368.0625 186.484375 C 368.0625 195.363281 350.589844 203.664062 318.863281 209.847656 C 287.289062 216.003906 245.316406 219.398438 200.671875 219.398438 Z M 200.671875 154.246094 C 156.074219 154.246094 114.148438 157.632812 82.613281 163.78125 C 51.695312 169.8125 33.957031 178.085938 33.957031 186.484375 C 33.957031 194.882812 51.695312 203.15625 82.613281 209.1875 C 114.148438 215.335938 156.074219 218.722656 200.671875 218.722656 C 245.273438 218.722656 287.199219 215.335938 318.730469 209.1875 C 349.652344 203.15625 367.386719 194.882812 367.386719 186.484375 C 367.386719 178.085938 349.652344 169.8125 318.730469 163.78125 C 287.199219 157.632812 245.273438 154.246094 200.671875 154.246094 Z M 200.671875 154.246094 " fill-opacity="1" fill-rule="nonzero"/></g><g fill="#ff00ff" fill-opacity="1"><g transform="translate(81.76331, 187.912769)"><g><path d="M 16.652344 0 C 18.832031 0 20.574219 -1.789062 20.574219 -3.917969 L 20.574219 -15.675781 C 20.574219 -17.828125 18.808594 -19.59375 16.652344 -19.59375 L 4.898438 -19.59375 C 2.742188 -19.59375 0.980469 -17.828125 0.980469 -15.675781 L 0.980469 -3.917969 C 0.980469 -1.761719 2.742188 0 4.898438 0 Z M 4.898438 -15.675781 L 16.652344 -15.675781 L 16.652344 -3.917969 L 4.898438 -3.917969 Z M 4.898438 -15.675781 "/></g></g></g><g fill="#ff00ff" fill-opacity="1"><g transform="translate(103.31528, 187.912769)"><g><path d="M 20.574219 -15.675781 C 20.574219 -17.828125 18.808594 -19.59375 16.652344 -19.59375 L 0.980469 -19.59375 L 0.980469 0 L 4.898438 0 L 4.898438 -7.835938 L 7.199219 -7.835938 L 14.449219 -0.585938 C 14.839844 -0.195312 15.332031 0 15.871094 0 L 20.574219 0 L 20.574219 -3.917969 L 16.652344 -3.917969 L 12.734375 -7.835938 L 16.652344 -7.835938 C 18.808594 -7.835938 20.574219 -9.601562 20.574219 -11.753906 Z M 16.652344 -15.675781 L 16.652344 -11.753906 L 4.898438 -11.753906 L 4.898438 -15.675781 Z M 16.652344 -15.675781 "/></g></g></g><g fill="#ff00ff" fill-opacity="1"><g transform="translate(124.867249, 187.912769)"><g><path d="M 20.574219 -15.675781 C 20.574219 -17.804688 18.832031 -19.59375 16.652344 -19.59375 L 0.980469 -19.59375 L 0.980469 0 L 16.652344 0 C 18.832031 0 20.574219 -1.789062 20.574219 -3.917969 L 20.574219 -7.835938 C 20.574219 -8.914062 19.691406 -9.796875 18.613281 -9.796875 C 19.691406 -9.796875 20.574219 -10.679688 20.574219 -11.753906 Z M 16.652344 -15.675781 L 16.652344 -11.753906 L 4.898438 -11.753906 L 4.898438 -15.675781 Z M 4.898438 -3.917969 L 4.898438 -7.835938 L 16.652344 -7.835938 L 16.652344 -3.917969 Z M 4.898438 -3.917969 "/></g></g></g><g fill="#ff00ff" fill-opacity="1"><g transform="translate(146.419219, 187.912769)"><g><path d="M 20.574219 0 L 20.574219 -3.917969 L 12.734375 -3.917969 L 12.734375 -15.675781 L 20.574219 -15.675781 L 20.574219 -19.59375 L 0.980469 -19.59375 L 0.980469 -15.675781 L 8.816406 -15.675781 L 8.816406 -3.917969 L 0.980469 -3.917969 L 0.980469 0 Z M 20.574219 0 "/></g></g></g><g fill="#ff00ff" fill-opacity="1"><g transform="translate(167.971189, 187.912769)"><g><path d="M 10.777344 0 C 11.632812 0 12.515625 -0.320312 13.226562 -0.929688 L 19.835938 -6.613281 C 20.304688 -7.027344 20.546875 -7.542969 20.546875 -8.179688 L 20.574219 -19.59375 L 16.652344 -19.59375 L 16.652344 -9.0625 L 10.777344 -3.992188 L 4.898438 -9.0625 L 4.898438 -19.59375 L 0.980469 -19.59375 L 0.980469 -8.179688 C 0.980469 -7.566406 1.25 -7.027344 1.714844 -6.613281 L 8.328125 -0.929688 C 9.0625 -0.320312 9.917969 0 10.777344 0 Z M 10.777344 0 "/></g></g></g><g fill="#ff00ff" fill-opacity="1"><g transform="translate(189.523159, 187.912769)"><g><path d="M 20.574219 -19.59375 L 4.898438 -19.59375 C 2.742188 -19.59375 0.980469 -17.828125 0.980469 -15.675781 L 0.980469 -3.917969 C 0.980469 -1.761719 2.742188 0 4.898438 0 L 20.574219 0 L 20.574219 -3.917969 L 4.898438 -3.917969 L 4.898438 -7.835938 L 20.574219 -7.835938 L 20.574219 -11.753906 L 4.898438 -11.753906 L 4.898438 -15.675781 L 20.574219 -15.675781 Z M 20.574219 -19.59375 "/></g></g></g><g fill="#ff00ff" fill-opacity="1"><g transform="translate(211.075129, 187.912769)"><g><path d="M 4.898438 0 L 4.898438 -12.90625 L 17.21875 -0.585938 C 17.585938 -0.21875 18.074219 0 18.613281 0 C 19.691406 0 20.574219 -0.882812 20.574219 -1.960938 L 20.574219 -19.59375 L 16.652344 -19.59375 L 16.652344 -6.6875 L 4.335938 -19.003906 C 3.96875 -19.371094 3.476562 -19.59375 2.9375 -19.59375 C 1.859375 -19.59375 0.980469 -18.710938 0.980469 -17.632812 L 0.980469 0 Z M 4.898438 0 "/></g></g></g><g fill="#ff00ff" fill-opacity="1"><g transform="translate(232.627099, 187.912769)"><g><path d="M 20.574219 -19.59375 L 0.980469 -19.59375 L 0.980469 -15.675781 L 8.816406 -15.675781 L 8.816406 0 L 12.734375 0 L 12.734375 -15.675781 L 20.574219 -15.675781 Z M 20.574219 -19.59375 "/></g></g></g><g fill="#ff00ff" fill-opacity="1"><g transform="translate(254.179069, 187.912769)"><g><path d="M 16.652344 0 C 18.808594 0 20.574219 -1.761719 20.574219 -3.917969 L 20.574219 -19.59375 L 16.652344 -19.59375 L 16.652344 -3.917969 L 4.898438 -3.917969 L 4.898438 -19.59375 L 0.980469 -19.59375 L 0.980469 -3.917969 C 0.980469 -1.761719 2.742188 0 4.898438 0 Z M 16.652344 0 "/></g></g></g><g fill="#ff00ff" fill-opacity="1"><g transform="translate(275.731039, 187.912769)"><g><path d="M 20.574219 -15.675781 C 20.574219 -17.828125 18.808594 -19.59375 16.652344 -19.59375 L 0.980469 -19.59375 L 0.980469 0 L 4.898438 0 L 4.898438 -7.835938 L 7.199219 -7.835938 L 14.449219 -0.585938 C 14.839844 -0.195312 15.332031 0 15.871094 0 L 20.574219 0 L 20.574219 -3.917969 L 16.652344 -3.917969 L 12.734375 -7.835938 L 16.652344 -7.835938 C 18.808594 -7.835938 20.574219 -9.601562 20.574219 -11.753906 Z M 16.652344 -15.675781 L 16.652344 -11.753906 L 4.898438 -11.753906 L 4.898438 -15.675781 Z M 16.652344 -15.675781 "/></g></g></g><g fill="#ff00ff" fill-opacity="1"><g transform="translate(297.283009, 187.912769)"><g><path d="M 20.574219 -19.59375 L 4.898438 -19.59375 C 2.742188 -19.59375 0.980469 -17.828125 0.980469 -15.675781 L 0.980469 -3.917969 C 0.980469 -1.761719 2.742188 0 4.898438 0 L 20.574219 0 L 20.574219 -3.917969 L 4.898438 -3.917969 L 4.898438 -7.835938 L 20.574219 -7.835938 L 20.574219 -11.753906 L 4.898438 -11.753906 L 4.898438 -15.675781 L 20.574219 -15.675781 Z M 20.574219 -19.59375 "/></g></g></g><g fill="#00ffff" fill-opacity="1"><g transform="translate(82.510922, 190.083989)"><g><path d="M 16.652344 0 C 18.832031 0 20.574219 -1.789062 20.574219 -3.917969 L 20.574219 -15.675781 C 20.574219 -17.828125 18.808594 -19.59375 16.652344 -19.59375 L 4.898438 -19.59375 C 2.742188 -19.59375 0.980469 -17.828125 0.980469 -15.675781 L 0.980469 -3.917969 C 0.980469 -1.761719 2.742188 0 4.898438 0 Z M 4.898438 -15.675781 L 16.652344 -15.675781 L 16.652344 -3.917969 L 4.898438 -3.917969 Z M 4.898438 -15.675781 "/></g></g></g><g fill="#00ffff" fill-opacity="1"><g transform="translate(104.062891, 190.083989)"><g><path d="M 20.574219 -15.675781 C 20.574219 -17.828125 18.808594 -19.59375 16.652344 -19.59375 L 0.980469 -19.59375 L 0.980469 0 L 4.898438 0 L 4.898438 -7.835938 L 7.199219 -7.835938 L 14.449219 -0.585938 C 14.839844 -0.195312 15.332031 0 15.871094 0 L 20.574219 0 L 20.574219 -3.917969 L 16.652344 -3.917969 L 12.734375 -7.835938 L 16.652344 -7.835938 C 18.808594 -7.835938 20.574219 -9.601562 20.574219 -11.753906 Z M 16.652344 -15.675781 L 16.652344 -11.753906 L 4.898438 -11.753906 L 4.898438 -15.675781 Z M 16.652344 -15.675781 "/></g></g></g><g fill="#00ffff" fill-opacity="1"><g transform="translate(125.614861, 190.083989)"><g><path d="M 20.574219 -15.675781 C 20.574219 -17.804688 18.832031 -19.59375 16.652344 -19.59375 L 0.980469 -19.59375 L 0.980469 0 L 16.652344 0 C 18.832031 0 20.574219 -1.789062 20.574219 -3.917969 L 20.574219 -7.835938 C 20.574219 -8.914062 19.691406 -9.796875 18.613281 -9.796875 C 19.691406 -9.796875 20.574219 -10.679688 20.574219 -11.753906 Z M 16.652344 -15.675781 L 16.652344 -11.753906 L 4.898438 -11.753906 L 4.898438 -15.675781 Z M 4.898438 -3.917969 L 4.898438 -7.835938 L 16.652344 -7.835938 L 16.652344 -3.917969 Z M 4.898438 -3.917969 "/></g></g></g><g fill="#00ffff" fill-opacity="1"><g transform="translate(147.166831, 190.083989)"><g><path d="M 20.574219 0 L 20.574219 -3.917969 L 12.734375 -3.917969 L 12.734375 -15.675781 L 20.574219 -15.675781 L 20.574219 -19.59375 L 0.980469 -19.59375 L 0.980469 -15.675781 L 8.816406 -15.675781 L 8.816406 -3.917969 L 0.980469 -3.917969 L 0.980469 0 Z M 20.574219 0 "/></g></g></g><g fill="#00ffff" fill-opacity="1"><g transform="translate(168.718801, 190.083989)"><g><path d="M 10.777344 0 C 11.632812 0 12.515625 -0.320312 13.226562 -0.929688 L 19.835938 -6.613281 C 20.304688 -7.027344 20.546875 -7.542969 20.546875 -8.179688 L 20.574219 -19.59375 L 16.652344 -19.59375 L 16.652344 -9.0625 L 10.777344 -3.992188 L 4.898438 -9.0625 L 4.898438 -19.59375 L 0.980469 -19.59375 L 0.980469 -8.179688 C 0.980469 -7.566406 1.25 -7.027344 1.714844 -6.613281 L 8.328125 -0.929688 C 9.0625 -0.320312 9.917969 0 10.777344 0 Z M 10.777344 0 "/></g></g></g><g fill="#00ffff" fill-opacity="1"><g transform="translate(190.270771, 190.083989)"><g><path d="M 20.574219 -19.59375 L 4.898438 -19.59375 C 2.742188 -19.59375 0.980469 -17.828125 0.980469 -15.675781 L 0.980469 -3.917969 C 0.980469 -1.761719 2.742188 0 4.898438 0 L 20.574219 0 L 20.574219 -3.917969 L 4.898438 -3.917969 L 4.898438 -7.835938 L 20.574219 -7.835938 L 20.574219 -11.753906 L 4.898438 -11.753906 L 4.898438 -15.675781 L 20.574219 -15.675781 Z M 20.574219 -19.59375 "/></g></g></g><g fill="#00ffff" fill-opacity="1"><g transform="translate(211.822741, 190.083989)"><g><path d="M 4.898438 0 L 4.898438 -12.90625 L 17.21875 -0.585938 C 17.585938 -0.21875 18.074219 0 18.613281 0 C 19.691406 0 20.574219 -0.882812 20.574219 -1.960938 L 20.574219 -19.59375 L 16.652344 -19.59375 L 16.652344 -6.6875 L 4.335938 -19.003906 C 3.96875 -19.371094 3.476562 -19.59375 2.9375 -19.59375 C 1.859375 -19.59375 0.980469 -18.710938 0.980469 -17.632812 L 0.980469 0 Z M 4.898438 0 "/></g></g></g><g fill="#00ffff" fill-opacity="1"><g transform="translate(233.374711, 190.083989)"><g><path d="M 20.574219 -19.59375 L 0.980469 -19.59375 L 0.980469 -15.675781 L 8.816406 -15.675781 L 8.816406 0 L 12.734375 0 L 12.734375 -15.675781 L 20.574219 -15.675781 Z M 20.574219 -19.59375 "/></g></g></g><g fill="#00ffff" fill-opacity="1"><g transform="translate(254.926681, 190.083989)"><g><path d="M 16.652344 0 C 18.808594 0 20.574219 -1.761719 20.574219 -3.917969 L 20.574219 -19.59375 L 16.652344 -19.59375 L 16.652344 -3.917969 L 4.898438 -3.917969 L 4.898438 -19.59375 L 0.980469 -19.59375 L 0.980469 -3.917969 C 0.980469 -1.761719 2.742188 0 4.898438 0 Z M 16.652344 0 "/></g></g></g><g fill="#00ffff" fill-opacity="1"><g transform="translate(276.478651, 190.083989)"><g><path d="M 20.574219 -15.675781 C 20.574219 -17.828125 18.808594 -19.59375 16.652344 -19.59375 L 0.980469 -19.59375 L 0.980469 0 L 4.898438 0 L 4.898438 -7.835938 L 7.199219 -7.835938 L 14.449219 -0.585938 C 14.839844 -0.195312 15.332031 0 15.871094 0 L 20.574219 0 L 20.574219 -3.917969 L 16.652344 -3.917969 L 12.734375 -7.835938 L 16.652344 -7.835938 C 18.808594 -7.835938 20.574219 -9.601562 20.574219 -11.753906 Z M 16.652344 -15.675781 L 16.652344 -11.753906 L 4.898438 -11.753906 L 4.898438 -15.675781 Z M 16.652344 -15.675781 "/></g></g></g><g fill="#00ffff" fill-opacity="1"><g transform="translate(298.030621, 190.083989)"><g><path d="M 20.574219 -19.59375 L 4.898438 -19.59375 C 2.742188 -19.59375 0.980469 -17.828125 0.980469 -15.675781 L 0.980469 -3.917969 C 0.980469 -1.761719 2.742188 0 4.898438 0 L 20.574219 0 L 20.574219 -3.917969 L 4.898438 -3.917969 L 4.898438 -7.835938 L 20.574219 -7.835938 L 20.574219 -11.753906 L 4.898438 -11.753906 L 4.898438 -15.675781 L 20.574219 -15.675781 Z M 20.574219 -19.59375 "/></g></g></g><g fill="#ffe3e3" fill-opacity="1"><g transform="translate(82.137114, 188.998378)"><g><path d="M 16.652344 0 C 18.832031 0 20.574219 -1.789062 20.574219 -3.917969 L 20.574219 -15.675781 C 20.574219 -17.828125 18.808594 -19.59375 16.652344 -19.59375 L 4.898438 -19.59375 C 2.742188 -19.59375 0.980469 -17.828125 0.980469 -15.675781 L 0.980469 -3.917969 C 0.980469 -1.761719 2.742188 0 4.898438 0 Z M 4.898438 -15.675781 L 16.652344 -15.675781 L 16.652344 -3.917969 L 4.898438 -3.917969 Z M 4.898438 -15.675781 "/></g></g></g><g fill="#ffe3e3" fill-opacity="1"><g transform="translate(103.689084, 188.998378)"><g><path d="M 20.574219 -15.675781 C 20.574219 -17.828125 18.808594 -19.59375 16.652344 -19.59375 L 0.980469 -19.59375 L 0.980469 0 L 4.898438 0 L 4.898438 -7.835938 L 7.199219 -7.835938 L 14.449219 -0.585938 C 14.839844 -0.195312 15.332031 0 15.871094 0 L 20.574219 0 L 20.574219 -3.917969 L 16.652344 -3.917969 L 12.734375 -7.835938 L 16.652344 -7.835938 C 18.808594 -7.835938 20.574219 -9.601562 20.574219 -11.753906 Z M 16.652344 -15.675781 L 16.652344 -11.753906 L 4.898438 -11.753906 L 4.898438 -15.675781 Z M 16.652344 -15.675781 "/></g></g></g><g fill="#ffe3e3" fill-opacity="1"><g transform="translate(125.241054, 188.998378)"><g><path d="M 20.574219 -15.675781 C 20.574219 -17.804688 18.832031 -19.59375 16.652344 -19.59375 L 0.980469 -19.59375 L 0.980469 0 L 16.652344 0 C 18.832031 0 20.574219 -1.789062 20.574219 -3.917969 L 20.574219 -7.835938 C 20.574219 -8.914062 19.691406 -9.796875 18.613281 -9.796875 C 19.691406 -9.796875 20.574219 -10.679688 20.574219 -11.753906 Z M 16.652344 -15.675781 L 16.652344 -11.753906 L 4.898438 -11.753906 L 4.898438 -15.675781 Z M 4.898438 -3.917969 L 4.898438 -7.835938 L 16.652344 -7.835938 L 16.652344 -3.917969 Z M 4.898438 -3.917969 "/></g></g></g><g fill="#ffe3e3" fill-opacity="1"><g transform="translate(146.793024, 188.998378)"><g><path d="M 20.574219 0 L 20.574219 -3.917969 L 12.734375 -3.917969 L 12.734375 -15.675781 L 20.574219 -15.675781 L 20.574219 -19.59375 L 0.980469 -19.59375 L 0.980469 -15.675781 L 8.816406 -15.675781 L 8.816406 -3.917969 L 0.980469 -3.917969 L 0.980469 0 Z M 20.574219 0 "/></g></g></g><g fill="#ffe3e3" fill-opacity="1"><g transform="translate(168.344994, 188.998378)"><g><path d="M 10.777344 0 C 11.632812 0 12.515625 -0.320312 13.226562 -0.929688 L 19.835938 -6.613281 C 20.304688 -7.027344 20.546875 -7.542969 20.546875 -8.179688 L 20.574219 -19.59375 L 16.652344 -19.59375 L 16.652344 -9.0625 L 10.777344 -3.992188 L 4.898438 -9.0625 L 4.898438 -19.59375 L 0.980469 -19.59375 L 0.980469 -8.179688 C 0.980469 -7.566406 1.25 -7.027344 1.714844 -6.613281 L 8.328125 -0.929688 C 9.0625 -0.320312 9.917969 0 10.777344 0 Z M 10.777344 0 "/></g></g></g><g fill="#ffe3e3" fill-opacity="1"><g transform="translate(189.896964, 188.998378)"><g><path d="M 20.574219 -19.59375 L 4.898438 -19.59375 C 2.742188 -19.59375 0.980469 -17.828125 0.980469 -15.675781 L 0.980469 -3.917969 C 0.980469 -1.761719 2.742188 0 4.898438 0 L 20.574219 0 L 20.574219 -3.917969 L 4.898438 -3.917969 L 4.898438 -7.835938 L 20.574219 -7.835938 L 20.574219 -11.753906 L 4.898438 -11.753906 L 4.898438 -15.675781 L 20.574219 -15.675781 Z M 20.574219 -19.59375 "/></g></g></g><g fill="#ffe3e3" fill-opacity="1"><g transform="translate(211.448934, 188.998378)"><g><path d="M 4.898438 0 L 4.898438 -12.90625 L 17.21875 -0.585938 C 17.585938 -0.21875 18.074219 0 18.613281 0 C 19.691406 0 20.574219 -0.882812 20.574219 -1.960938 L 20.574219 -19.59375 L 16.652344 -19.59375 L 16.652344 -6.6875 L 4.335938 -19.003906 C 3.96875 -19.371094 3.476562 -19.59375 2.9375 -19.59375 C 1.859375 -19.59375 0.980469 -18.710938 0.980469 -17.632812 L 0.980469 0 Z M 4.898438 0 "/></g></g></g><g fill="#ffe3e3" fill-opacity="1"><g transform="translate(233.000904, 188.998378)"><g><path d="M 20.574219 -19.59375 L 0.980469 -19.59375 L 0.980469 -15.675781 L 8.816406 -15.675781 L 8.816406 0 L 12.734375 0 L 12.734375 -15.675781 L 20.574219 -15.675781 Z M 20.574219 -19.59375 "/></g></g></g><g fill="#ffe3e3" fill-opacity="1"><g transform="translate(254.552874, 188.998378)"><g><path d="M 16.652344 0 C 18.808594 0 20.574219 -1.761719 20.574219 -3.917969 L 20.574219 -19.59375 L 16.652344 -19.59375 L 16.652344 -3.917969 L 4.898438 -3.917969 L 4.898438 -19.59375 L 0.980469 -19.59375 L 0.980469 -3.917969 C 0.980469 -1.761719 2.742188 0 4.898438 0 Z M 16.652344 0 "/></g></g></g><g fill="#ffe3e3" fill-opacity="1"><g transform="translate(276.104844, 188.998378)"><g><path d="M 20.574219 -15.675781 C 20.574219 -17.828125 18.808594 -19.59375 16.652344 -19.59375 L 0.980469 -19.59375 L 0.980469 0 L 4.898438 0 L 4.898438 -7.835938 L 7.199219 -7.835938 L 14.449219 -0.585938 C 14.839844 -0.195312 15.332031 0 15.871094 0 L 20.574219 0 L 20.574219 -3.917969 L 16.652344 -3.917969 L 12.734375 -7.835938 L 16.652344 -7.835938 C 18.808594 -7.835938 20.574219 -9.601562 20.574219 -11.753906 Z M 16.652344 -15.675781 L 16.652344 -11.753906 L 4.898438 -11.753906 L 4.898438 -15.675781 Z M 16.652344 -15.675781 "/></g></g></g><g fill="#ffe3e3" fill-opacity="1"><g transform="translate(297.656813, 188.998378)"><g><path d="M 20.574219 -19.59375 L 4.898438 -19.59375 C 2.742188 -19.59375 0.980469 -17.828125 0.980469 -15.675781 L 0.980469 -3.917969 C 0.980469 -1.761719 2.742188 0 4.898438 0 L 20.574219 0 L 20.574219 -3.917969 L 4.898438 -3.917969 L 4.898438 -7.835938 L 20.574219 -7.835938 L 20.574219 -11.753906 L 4.898438 -11.753906 L 4.898438 -15.675781 L 20.574219 -15.675781 Z M 20.574219 -19.59375 "/></g></g></g><g clip-path="url(#a74b73b5cb)"><g clip-path="url(#1196419078)"><g clip-path="url(#42940a1bfa)"><path fill="#ffffff" d="M 72.621094 159.644531 C 70.070312 158.777344 66 158.65625 61.746094 159.332031 C 60.582031 159.515625 59.285156 159.777344 58.421875 160 C 57.628906 160.203125 57.300781 160.242188 57.121094 160.148438 C 57.046875 160.109375 56.601562 159.738281 56.136719 159.335938 C 55.429688 158.71875 55.238281 158.574219 54.976562 158.46875 C 54.292969 158.191406 54.414062 158.167969 49.136719 159.804688 C 46.480469 160.625 44.226562 161.351562 44.144531 161.414062 C 43.953125 161.558594 43.898438 161.78125 44.019531 161.953125 C 44.058594 162.011719 45.078125 162.796875 46.289062 163.695312 C 48.34375 165.234375 48.5 165.339844 48.828125 165.445312 C 49.207031 165.566406 49.652344 165.59375 49.996094 165.523438 C 50.117188 165.488281 50.265625 165.496094 50.332031 165.53125 C 50.421875 165.578125 50.75 166.558594 51.644531 169.433594 C 52.644531 172.648438 52.824219 173.300781 52.765625 173.414062 C 52.722656 173.496094 52.570312 173.613281 52.402344 173.691406 C 51.996094 173.878906 51.644531 174.207031 51.441406 174.585938 C 51.226562 175 49.625 179.707031 49.617188 179.9375 C 49.617188 180.121094 49.679688 180.222656 49.855469 180.316406 C 49.929688 180.355469 51.441406 179.910156 54.949219 178.828125 C 60.417969 177.132812 60.222656 177.207031 60.621094 176.574219 C 60.785156 176.3125 60.863281 176.078125 61.058594 175.292969 C 61.195312 174.765625 61.347656 174.25 61.398438 174.152344 C 61.480469 174 61.59375 173.9375 62.300781 173.675781 C 67.1875 171.867188 71.757812 168.960938 74.011719 166.226562 C 75.832031 164.019531 76.046875 162.089844 74.625 160.757812 C 74.253906 160.417969 73.253906 159.859375 72.621094 159.644531 Z M 69.015625 162.539062 C 69.78125 163.246094 70.140625 164.363281 69.925781 165.414062 C 69.839844 165.859375 69.472656 166.535156 69.136719 166.867188 C 68.023438 167.988281 66.261719 168.078125 65.050781 167.070312 C 64.28125 166.425781 63.878906 165.371094 64.015625 164.355469 C 64.066406 163.957031 64.109375 163.835938 64.367188 163.355469 C 64.617188 162.886719 64.707031 162.765625 64.972656 162.535156 C 65.75 161.863281 66.746094 161.613281 67.714844 161.851562 C 68.113281 161.949219 68.710938 162.265625 69.015625 162.539062 Z M 69.015625 162.539062 " fill-opacity="1" fill-rule="nonzero"/></g></g></g><g clip-path="url(#d03dc27818)"><g clip-path="url(#dcf572d055)"><g clip-path="url(#a9d05d973c)"><path fill="#ffffff" d="M 48.296875 167.609375 C 46.390625 168.253906 43.300781 170.355469 41.867188 171.984375 C 41.414062 172.503906 41.253906 172.84375 41.429688 172.9375 C 41.480469 172.960938 41.992188 173.007812 42.570312 173.039062 C 43.503906 173.082031 44.496094 173.175781 46.164062 173.371094 C 47.382812 173.511719 48.558594 173.414062 49.835938 173.0625 C 50.300781 172.929688 50.429688 172.871094 50.492188 172.75 C 50.554688 172.628906 50.457031 172.253906 49.832031 170.207031 C 49.140625 167.953125 48.996094 167.578125 48.828125 167.488281 C 48.785156 167.46875 48.546875 167.523438 48.296875 167.609375 Z M 48.296875 167.609375 " fill-opacity="1" fill-rule="nonzero"/></g></g></g><g fill="#ff00ff" fill-opacity="1"><g transform="translate(90.63837, 208.540251)"><g><path d="M 0.453125 -9.328125 C 0.453125 -10.316406 0.6875 -11.078125 1.15625 -11.609375 C 1.632812 -12.140625 2.347656 -12.40625 3.296875 -12.40625 C 4.242188 -12.40625 4.953125 -12.140625 5.421875 -11.609375 C 5.898438 -11.078125 6.140625 -10.316406 6.140625 -9.328125 L 6.140625 -8.9375 L 4.3125 -8.9375 L 4.3125 -9.453125 C 4.3125 -9.890625 4.222656 -10.195312 4.046875 -10.375 C 3.878906 -10.5625 3.644531 -10.65625 3.34375 -10.65625 C 3.039062 -10.65625 2.804688 -10.5625 2.640625 -10.375 C 2.472656 -10.195312 2.390625 -9.890625 2.390625 -9.453125 C 2.390625 -9.023438 2.476562 -8.648438 2.65625 -8.328125 C 2.84375 -8.015625 3.078125 -7.710938 3.359375 -7.421875 C 3.640625 -7.140625 3.941406 -6.851562 4.265625 -6.5625 C 4.585938 -6.28125 4.890625 -5.96875 5.171875 -5.625 C 5.453125 -5.289062 5.6875 -4.90625 5.875 -4.46875 C 6.0625 -4.039062 6.15625 -3.53125 6.15625 -2.9375 C 6.15625 -1.945312 5.910156 -1.1875 5.421875 -0.65625 C 4.941406 -0.125 4.226562 0.140625 3.28125 0.140625 C 2.332031 0.140625 1.613281 -0.125 1.125 -0.65625 C 0.644531 -1.1875 0.40625 -1.945312 0.40625 -2.9375 L 0.40625 -3.703125 L 2.21875 -3.703125 L 2.21875 -2.828125 C 2.21875 -2.378906 2.304688 -2.066406 2.484375 -1.890625 C 2.671875 -1.710938 2.914062 -1.625 3.21875 -1.625 C 3.53125 -1.625 3.773438 -1.710938 3.953125 -1.890625 C 4.128906 -2.066406 4.21875 -2.378906 4.21875 -2.828125 C 4.21875 -3.242188 4.125 -3.613281 3.9375 -3.9375 C 3.75 -4.257812 3.515625 -4.5625 3.234375 -4.84375 C 2.960938 -5.132812 2.664062 -5.421875 2.34375 -5.703125 C 2.019531 -5.992188 1.71875 -6.304688 1.4375 -6.640625 C 1.15625 -6.984375 0.921875 -7.367188 0.734375 -7.796875 C 0.546875 -8.234375 0.453125 -8.742188 0.453125 -9.328125 Z M 0.453125 -9.328125 "/></g></g></g><g fill="#ff00ff" fill-opacity="1"><g transform="translate(106.491261, 208.540251)"><g><path d="M 0.703125 -12.265625 L 2.625 -12.265625 L 2.625 -1.75 L 5.796875 -1.75 L 5.796875 0 L 0.703125 0 Z M 0.703125 -12.265625 "/></g></g></g><g fill="#ff00ff" fill-opacity="1"><g transform="translate(121.730679, 208.540251)"><g><path d="M 0.703125 -12.265625 L 2.625 -12.265625 L 2.625 0 L 0.703125 0 Z M 0.703125 -12.265625 "/></g></g></g><g fill="#ff00ff" fill-opacity="1"><g transform="translate(134.358444, 208.540251)"><g><path d="M 2.421875 -8.890625 L 2.421875 0 L 0.6875 0 L 0.6875 -12.265625 L 3.109375 -12.265625 L 5.078125 -4.921875 L 5.078125 -12.265625 L 6.796875 -12.265625 L 6.796875 0 L 4.828125 0 Z M 2.421875 -8.890625 "/></g></g></g><g fill="#ff00ff" fill-opacity="1"><g transform="translate(151.140311, 208.540251)"><g><path d="M 3.59375 -6.84375 L 6.296875 -6.84375 L 6.296875 -2.9375 C 6.296875 -1.945312 6.050781 -1.1875 5.5625 -0.65625 C 5.082031 -0.125 4.367188 0.140625 3.421875 0.140625 C 2.472656 0.140625 1.753906 -0.125 1.265625 -0.65625 C 0.785156 -1.1875 0.546875 -1.945312 0.546875 -2.9375 L 0.546875 -9.328125 C 0.546875 -10.316406 0.785156 -11.078125 1.265625 -11.609375 C 1.753906 -12.140625 2.472656 -12.40625 3.421875 -12.40625 C 4.367188 -12.40625 5.082031 -12.140625 5.5625 -11.609375 C 6.050781 -11.078125 6.296875 -10.316406 6.296875 -9.328125 L 6.296875 -8.140625 L 4.46875 -8.140625 L 4.46875 -9.453125 C 4.46875 -9.890625 4.375 -10.195312 4.1875 -10.375 C 4.007812 -10.5625 3.769531 -10.65625 3.46875 -10.65625 C 3.164062 -10.65625 2.921875 -10.5625 2.734375 -10.375 C 2.554688 -10.195312 2.46875 -9.890625 2.46875 -9.453125 L 2.46875 -2.828125 C 2.46875 -2.378906 2.554688 -2.066406 2.734375 -1.890625 C 2.921875 -1.710938 3.164062 -1.625 3.46875 -1.625 C 3.769531 -1.625 4.007812 -1.710938 4.1875 -1.890625 C 4.375 -2.066406 4.46875 -2.378906 4.46875 -2.828125 L 4.46875 -5.078125 L 3.59375 -5.078125 Z M 3.59375 -6.84375 "/></g></g></g><g fill="#ff00ff" fill-opacity="1"><g transform="translate(167.273652, 208.540251)"><g/></g></g><g fill="#ff00ff" fill-opacity="1"><g transform="translate(179.287947, 208.540251)"><g><path d="M 0.71875 -3.90625 C 0.71875 -4.539062 0.816406 -5.078125 1.015625 -5.515625 C 1.222656 -5.953125 1.566406 -6.273438 2.046875 -6.484375 C 1.160156 -6.859375 0.71875 -7.703125 0.71875 -9.015625 L 0.71875 -9.234375 C 0.71875 -10.234375 0.953125 -10.988281 1.421875 -11.5 C 1.898438 -12.007812 2.625 -12.265625 3.59375 -12.265625 L 5.796875 -12.265625 L 5.796875 -10.515625 L 3.625 -10.515625 C 3.320312 -10.515625 3.082031 -10.425781 2.90625 -10.25 C 2.726562 -10.082031 2.640625 -9.773438 2.640625 -9.328125 L 2.640625 -8.578125 C 2.640625 -8.085938 2.742188 -7.75 2.953125 -7.5625 C 3.160156 -7.375 3.441406 -7.28125 3.796875 -7.28125 L 4.640625 -7.28125 L 4.640625 -8.640625 L 6.578125 -8.640625 L 6.578125 -7.28125 L 7.078125 -7.28125 L 7.078125 -5.515625 L 6.578125 -5.515625 L 6.578125 -1.484375 C 6.578125 -1.179688 6.585938 -0.914062 6.609375 -0.6875 C 6.628906 -0.457031 6.6875 -0.226562 6.78125 0 L 4.828125 0 C 4.773438 -0.125 4.738281 -0.25 4.71875 -0.375 C 4.695312 -0.5 4.671875 -0.695312 4.640625 -0.96875 C 4.304688 -0.226562 3.710938 0.140625 2.859375 0.140625 C 2.140625 0.140625 1.601562 -0.0976562 1.25 -0.578125 C 0.894531 -1.054688 0.71875 -1.753906 0.71875 -2.671875 Z M 2.640625 -2.828125 C 2.640625 -2.378906 2.726562 -2.0625 2.90625 -1.875 C 3.09375 -1.695312 3.335938 -1.609375 3.640625 -1.609375 C 3.929688 -1.609375 4.164062 -1.691406 4.34375 -1.859375 C 4.519531 -2.023438 4.617188 -2.300781 4.640625 -2.6875 L 4.640625 -5.515625 L 3.90625 -5.515625 C 3.46875 -5.515625 3.144531 -5.398438 2.9375 -5.171875 C 2.738281 -4.941406 2.640625 -4.539062 2.640625 -3.96875 Z M 2.640625 -2.828125 "/></g></g></g><g fill="#ff00ff" fill-opacity="1"><g transform="translate(195.841959, 208.540251)"><g/></g></g><g fill="#ff00ff" fill-opacity="1"><g transform="translate(207.856253, 208.540251)"><g><path d="M 2.625 -7.09375 L 5.28125 -7.09375 L 5.28125 -5.34375 L 2.625 -5.34375 L 2.625 -1.75 L 5.953125 -1.75 L 5.953125 0 L 0.703125 0 L 0.703125 -12.265625 L 5.953125 -12.265625 L 5.953125 -10.515625 L 2.625 -10.515625 Z M 2.625 -7.09375 "/></g></g></g><g fill="#ff00ff" fill-opacity="1"><g transform="translate(223.603986, 208.540251)"><g><path d="M 7.140625 -12.265625 L 5.125 -6.3125 L 7.28125 0 L 5.234375 0 L 3.65625 -4.859375 L 2.0625 0 L 0.265625 0 L 2.421875 -6.3125 L 0.40625 -12.265625 L 2.40625 -12.265625 L 3.859375 -7.75 L 5.34375 -12.265625 Z M 7.140625 -12.265625 "/></g></g></g><g fill="#ff00ff" fill-opacity="1"><g transform="translate(240.438439, 208.540251)"><g><path d="M 3.546875 -12.265625 C 4.515625 -12.265625 5.234375 -12.007812 5.703125 -11.5 C 6.179688 -10.988281 6.421875 -10.234375 6.421875 -9.234375 L 6.421875 -7.640625 C 6.421875 -6.648438 6.179688 -5.894531 5.703125 -5.375 C 5.234375 -4.863281 4.515625 -4.609375 3.546875 -4.609375 L 2.625 -4.609375 L 2.625 0 L 0.703125 0 L 0.703125 -12.265625 Z M 2.625 -10.515625 L 2.625 -6.359375 L 3.546875 -6.359375 C 3.847656 -6.359375 4.078125 -6.441406 4.234375 -6.609375 C 4.398438 -6.773438 4.484375 -7.078125 4.484375 -7.515625 L 4.484375 -9.359375 C 4.484375 -9.804688 4.398438 -10.109375 4.234375 -10.265625 C 4.078125 -10.429688 3.847656 -10.515625 3.546875 -10.515625 Z M 2.625 -10.515625 "/></g></g></g><g fill="#ff00ff" fill-opacity="1"><g transform="translate(256.431559, 208.540251)"><g><path d="M 0.703125 -12.265625 L 2.625 -12.265625 L 2.625 -1.75 L 5.796875 -1.75 L 5.796875 0 L 0.703125 0 Z M 0.703125 -12.265625 "/></g></g></g><g fill="#ff00ff" fill-opacity="1"><g transform="translate(271.670981, 208.540251)"><g><path d="M 2.46875 -2.828125 C 2.46875 -2.378906 2.554688 -2.0625 2.734375 -1.875 C 2.921875 -1.695312 3.164062 -1.609375 3.46875 -1.609375 C 3.769531 -1.609375 4.007812 -1.695312 4.1875 -1.875 C 4.375 -2.0625 4.46875 -2.378906 4.46875 -2.828125 L 4.46875 -9.453125 C 4.46875 -9.890625 4.375 -10.195312 4.1875 -10.375 C 4.007812 -10.5625 3.769531 -10.65625 3.46875 -10.65625 C 3.164062 -10.65625 2.921875 -10.5625 2.734375 -10.375 C 2.554688 -10.195312 2.46875 -9.890625 2.46875 -9.453125 Z M 0.546875 -9.328125 C 0.546875 -10.316406 0.796875 -11.078125 1.296875 -11.609375 C 1.796875 -12.140625 2.519531 -12.40625 3.46875 -12.40625 C 4.414062 -12.40625 5.140625 -12.140625 5.640625 -11.609375 C 6.148438 -11.078125 6.40625 -10.316406 6.40625 -9.328125 L 6.40625 -2.9375 C 6.40625 -1.945312 6.148438 -1.1875 5.640625 -0.65625 C 5.140625 -0.125 4.414062 0.140625 3.46875 0.140625 C 2.519531 0.140625 1.796875 -0.125 1.296875 -0.65625 C 0.796875 -1.1875 0.546875 -1.945312 0.546875 -2.9375 Z M 0.546875 -9.328125 "/></g></g></g><g fill="#ff00ff" fill-opacity="1"><g transform="translate(287.909478, 208.540251)"><g><path d="M 4.734375 0 C 4.710938 -0.0820312 4.6875 -0.15625 4.65625 -0.21875 C 4.632812 -0.289062 4.613281 -0.378906 4.59375 -0.484375 C 4.582031 -0.597656 4.570312 -0.734375 4.5625 -0.890625 C 4.5625 -1.054688 4.5625 -1.257812 4.5625 -1.5 L 4.5625 -3.4375 C 4.5625 -4.007812 4.460938 -4.410156 4.265625 -4.640625 C 4.066406 -4.878906 3.742188 -5 3.296875 -5 L 2.625 -5 L 2.625 0 L 0.703125 0 L 0.703125 -12.265625 L 3.609375 -12.265625 C 4.617188 -12.265625 5.347656 -12.03125 5.796875 -11.5625 C 6.242188 -11.101562 6.46875 -10.398438 6.46875 -9.453125 L 6.46875 -8.484375 C 6.46875 -7.222656 6.046875 -6.394531 5.203125 -6 C 5.691406 -5.800781 6.023438 -5.472656 6.203125 -5.015625 C 6.390625 -4.566406 6.484375 -4.023438 6.484375 -3.390625 L 6.484375 -1.484375 C 6.484375 -1.179688 6.492188 -0.914062 6.515625 -0.6875 C 6.546875 -0.457031 6.609375 -0.226562 6.703125 0 Z M 2.625 -10.515625 L 2.625 -6.75 L 3.390625 -6.75 C 3.742188 -6.75 4.023438 -6.84375 4.234375 -7.03125 C 4.441406 -7.21875 4.546875 -7.554688 4.546875 -8.046875 L 4.546875 -9.25 C 4.546875 -9.695312 4.460938 -10.019531 4.296875 -10.21875 C 4.140625 -10.414062 3.894531 -10.515625 3.5625 -10.515625 Z M 2.625 -10.515625 "/></g></g></g><g fill="#ff00ff" fill-opacity="1"><g transform="translate(304.253156, 208.540251)"><g><path d="M 2.625 -7.09375 L 5.28125 -7.09375 L 5.28125 -5.34375 L 2.625 -5.34375 L 2.625 -1.75 L 5.953125 -1.75 L 5.953125 0 L 0.703125 0 L 0.703125 -12.265625 L 5.953125 -12.265625 L 5.953125 -10.515625 L 2.625 -10.515625 Z M 2.625 -7.09375 "/></g></g></g></svg>